<mxfile host="app.diagrams.net" modified="2024-03-20T12:47:51.539Z" agent="Mozilla/5.0 (Windows NT 10.0; Win64; x64) AppleWebKit/537.36 (KHTML, like Gecko) Chrome/122.0.0.0 Safari/537.36 Edg/122.0.0.0" etag="m79L7V48KhcqnwYzQ_OX" version="24.0.7" type="device">
  <diagram name="Page-1" id="0TSQYhWZiU3ZCPUQ66B-">
    <mxGraphModel dx="1426" dy="793" grid="1" gridSize="10" guides="1" tooltips="1" connect="1" arrows="1" fold="1" page="1" pageScale="1" pageWidth="850" pageHeight="1100" math="0" shadow="0">
      <root>
        <mxCell id="0" />
        <mxCell id="1" parent="0" />
        <mxCell id="BjvIwWfCL7ftc54---Ka-80" style="edgeStyle=orthogonalEdgeStyle;rounded=0;orthogonalLoop=1;jettySize=auto;html=1;exitX=1;exitY=0.5;exitDx=0;exitDy=0;entryX=0;entryY=0.5;entryDx=0;entryDy=0;" edge="1" parent="1" source="BjvIwWfCL7ftc54---Ka-8" target="BjvIwWfCL7ftc54---Ka-78">
          <mxGeometry relative="1" as="geometry" />
        </mxCell>
        <mxCell id="BjvIwWfCL7ftc54---Ka-8" value="Generate Email Drafts" style="ellipse;whiteSpace=wrap;html=1;" vertex="1" parent="1">
          <mxGeometry x="12" y="22.5" width="98" height="46" as="geometry" />
        </mxCell>
        <mxCell id="BjvIwWfCL7ftc54---Ka-93" value="" style="edgeStyle=orthogonalEdgeStyle;rounded=0;orthogonalLoop=1;jettySize=auto;html=1;" edge="1" parent="1" source="BjvIwWfCL7ftc54---Ka-23" target="BjvIwWfCL7ftc54---Ka-91">
          <mxGeometry relative="1" as="geometry" />
        </mxCell>
        <mxCell id="BjvIwWfCL7ftc54---Ka-99" value="No" style="edgeLabel;html=1;align=center;verticalAlign=middle;resizable=0;points=[];" vertex="1" connectable="0" parent="BjvIwWfCL7ftc54---Ka-93">
          <mxGeometry x="-0.2098" y="-2" relative="1" as="geometry">
            <mxPoint as="offset" />
          </mxGeometry>
        </mxCell>
        <mxCell id="BjvIwWfCL7ftc54---Ka-95" value="" style="edgeStyle=orthogonalEdgeStyle;rounded=0;orthogonalLoop=1;jettySize=auto;html=1;" edge="1" parent="1" source="BjvIwWfCL7ftc54---Ka-23" target="BjvIwWfCL7ftc54---Ka-92">
          <mxGeometry relative="1" as="geometry" />
        </mxCell>
        <mxCell id="BjvIwWfCL7ftc54---Ka-100" value="Yes" style="edgeLabel;html=1;align=center;verticalAlign=middle;resizable=0;points=[];" vertex="1" connectable="0" parent="BjvIwWfCL7ftc54---Ka-95">
          <mxGeometry x="-0.2667" y="-3" relative="1" as="geometry">
            <mxPoint as="offset" />
          </mxGeometry>
        </mxCell>
        <mxCell id="BjvIwWfCL7ftc54---Ka-23" value="Is Email type &quot;Create&quot;?" style="rhombus;whiteSpace=wrap;html=1;labelBackgroundColor=default;labelBorderColor=none;" vertex="1" parent="1">
          <mxGeometry x="147.94" y="100" width="84.12" height="80" as="geometry" />
        </mxCell>
        <mxCell id="BjvIwWfCL7ftc54---Ka-88" style="edgeStyle=orthogonalEdgeStyle;rounded=0;orthogonalLoop=1;jettySize=auto;html=1;exitX=0.5;exitY=1;exitDx=0;exitDy=0;entryX=0.5;entryY=0;entryDx=0;entryDy=0;" edge="1" parent="1" source="BjvIwWfCL7ftc54---Ka-78" target="BjvIwWfCL7ftc54---Ka-23">
          <mxGeometry relative="1" as="geometry" />
        </mxCell>
        <mxCell id="BjvIwWfCL7ftc54---Ka-78" value="Generate temporary Password" style="shape=process;whiteSpace=wrap;html=1;backgroundOutline=1;strokeWidth=2;" vertex="1" parent="1">
          <mxGeometry x="130" y="15.5" width="120" height="60" as="geometry" />
        </mxCell>
        <mxCell id="BjvIwWfCL7ftc54---Ka-98" value="" style="edgeStyle=orthogonalEdgeStyle;rounded=0;orthogonalLoop=1;jettySize=auto;html=1;" edge="1" parent="1" source="BjvIwWfCL7ftc54---Ka-79" target="BjvIwWfCL7ftc54---Ka-97">
          <mxGeometry relative="1" as="geometry" />
        </mxCell>
        <mxCell id="BjvIwWfCL7ftc54---Ka-79" value="Generate email Draft" style="rounded=0;whiteSpace=wrap;html=1;" vertex="1" parent="1">
          <mxGeometry x="280" y="15.5" width="120" height="60" as="geometry" />
        </mxCell>
        <mxCell id="BjvIwWfCL7ftc54---Ka-94" value="" style="edgeStyle=orthogonalEdgeStyle;rounded=0;orthogonalLoop=1;jettySize=auto;html=1;" edge="1" parent="1" source="BjvIwWfCL7ftc54---Ka-91" target="BjvIwWfCL7ftc54---Ka-79">
          <mxGeometry relative="1" as="geometry" />
        </mxCell>
        <mxCell id="BjvIwWfCL7ftc54---Ka-91" value="Modify Email body with variables taken from Config" style="rounded=0;whiteSpace=wrap;html=1;" vertex="1" parent="1">
          <mxGeometry x="280" y="110" width="120" height="60" as="geometry" />
        </mxCell>
        <mxCell id="BjvIwWfCL7ftc54---Ka-96" style="edgeStyle=orthogonalEdgeStyle;rounded=0;orthogonalLoop=1;jettySize=auto;html=1;exitX=1;exitY=0.5;exitDx=0;exitDy=0;entryX=0.5;entryY=1;entryDx=0;entryDy=0;" edge="1" parent="1" source="BjvIwWfCL7ftc54---Ka-92" target="BjvIwWfCL7ftc54---Ka-91">
          <mxGeometry relative="1" as="geometry" />
        </mxCell>
        <mxCell id="BjvIwWfCL7ftc54---Ka-92" value="Modify Email body with variables unique to &quot;Create&quot; Email taken from Config" style="rounded=0;whiteSpace=wrap;html=1;" vertex="1" parent="1">
          <mxGeometry x="130" y="210" width="120" height="60" as="geometry" />
        </mxCell>
        <mxCell id="BjvIwWfCL7ftc54---Ka-97" value="Back to Process Inbox" style="ellipse;whiteSpace=wrap;html=1;" vertex="1" parent="1">
          <mxGeometry x="440" y="22.5" width="98" height="46" as="geometry" />
        </mxCell>
      </root>
    </mxGraphModel>
  </diagram>
</mxfile>
